<svg width="40" height="31" viewBox="0 0 40 31" fill="none" xmlns="http://www.w3.org/2000/svg">
<g filter="url(#filter0_d_66_193)">
<path d="M11.1406 11.2913C11.1406 11.1523 11.1892 11.0178 11.278 10.9109V10.9109C11.516 10.6247 11.9554 10.6247 12.1933 10.9109V10.9109C12.2821 11.0178 12.3307 11.1523 12.3307 11.2913V11.8654C12.3307 12.194 12.0643 12.4604 11.7357 12.4604V12.4604C11.407 12.4604 11.1406 12.194 11.1406 11.8654V11.649V11.2913Z" fill="#D9D9D9"/>
</g>
<g filter="url(#filter1_d_66_193)">
<path d="M11.2671 10.881C11.5152 10.595 11.9594 10.5951 12.2075 10.881C12.3056 10.9941 12.3599 11.1395 12.3599 11.2892V11.8224C12.3599 12.1659 12.0813 12.4443 11.7378 12.4445C11.3941 12.4445 11.1147 12.1661 11.1147 11.8224V11.2892C11.1147 11.1395 11.169 10.9941 11.2671 10.881ZM10.4526 9.19055C10.6022 9.19055 10.7468 9.24403 10.8599 9.34192C11.1462 9.59004 11.1462 10.0342 10.8599 10.2823C10.7467 10.3803 10.6023 10.4347 10.4526 10.4347H9.91846C9.5751 10.4345 9.29654 10.156 9.29639 9.81262C9.29639 9.46911 9.57501 9.19079 9.91846 9.19055H10.4526ZM13.5562 9.19055C13.8998 9.19055 14.1792 9.46897 14.1792 9.81262C14.179 10.1561 13.8997 10.4347 13.5562 10.4347H13.0229C12.8733 10.4347 12.7288 10.3803 12.6157 10.2823C12.3294 10.0342 12.3294 9.59004 12.6157 9.34192C12.7288 9.24405 12.8734 9.19055 13.0229 9.19055H13.5562ZM11.7378 7.27551C12.0813 7.27565 12.3598 7.55405 12.3599 7.89758V8.43176C12.3598 8.58134 12.3055 8.72595 12.2075 8.83899C11.9594 9.12512 11.5152 9.12523 11.2671 8.83899C11.1692 8.72596 11.1158 8.58131 11.1157 8.43176V7.89758C11.1158 7.55397 11.3942 7.27551 11.7378 7.27551Z" fill="url(#paint0_linear_66_193)"/>
</g>
<g filter="url(#filter2_d_66_193)">
<ellipse cx="22.1664" cy="13.4405" rx="1.36509" ry="1.40005" fill="url(#paint1_linear_66_193)"/>
</g>
<g filter="url(#filter3_d_66_193)">
<ellipse cx="15.551" cy="13.4405" rx="1.40009" ry="1.40005" fill="url(#paint2_linear_66_193)"/>
</g>
<g filter="url(#filter4_d_66_193)">
<path d="M24.3096 17.5698C24.7289 18.932 25.605 20.024 26.7119 20.5747C25.042 21.7141 22.892 22.4009 20.5449 22.4009C16.9364 22.4009 13.794 20.7784 12.1475 18.3804C13.6111 19.7994 15.6318 20.6772 17.8643 20.6772C20.4954 20.6772 22.8321 19.4575 24.3096 17.5698Z" fill="url(#paint3_linear_66_193)"/>
</g>
<g filter="url(#filter5_d_66_193)">
<path d="M26.8159 5.3609C28.93 5.36116 30.6439 7.07495 30.644 9.18903C30.644 9.94097 30.4268 10.6424 30.0522 11.2339L31.4214 17.0298C31.5375 17.3299 31.6011 17.6566 31.6011 17.9976C31.6009 19.4778 30.4007 20.6773 28.9204 20.6773C27.8402 20.6771 26.9091 20.0385 26.4849 19.1177L24.7563 16.3697C24.7563 16.3697 25.187 15.9391 25.187 15.4127C25.187 15.2176 25.1277 14.9174 25.0532 14.6168C24.5917 15.7564 23.4776 16.5611 22.1724 16.5611C20.8968 16.5609 19.8019 15.7925 19.3218 14.6939H18.5542C18.0972 15.8437 16.9751 16.6568 15.6626 16.6568C14.5088 16.6566 13.5048 16.0274 12.9683 15.0943C12.9482 15.2155 12.9341 15.3246 12.9341 15.4127C12.9341 15.9333 13.3554 16.3603 13.3647 16.3697L11.6362 19.1177C11.2119 20.0385 10.281 20.6773 9.20068 20.6773C7.72038 20.6773 6.5202 19.4778 6.52002 17.9976C6.52002 17.6566 6.58358 17.3299 6.69971 17.0298L8.06885 11.2339C7.69426 10.6424 7.47705 9.94097 7.47705 9.18903C7.47715 7.07505 9.19122 5.36132 11.3052 5.3609C12.4489 5.3609 13.4748 5.86368 14.1763 6.65875C13.568 6.26218 12.8462 6.03082 12.0718 6.03082C9.90447 6.03121 8.14717 7.83119 8.14697 10.0513C8.14697 10.7041 8.29938 11.3208 8.56885 11.8658C8.53117 11.8273 8.49454 11.7877 8.4585 11.7476C9.54187 13.5897 10.5053 14.2027 12.9751 13.6802C13.102 13.6242 13.2481 13.5497 13.4126 13.4498C13.4127 14.745 14.463 15.7954 15.7583 15.7955C17.0536 15.7954 18.1039 14.745 18.104 13.4498C18.1038 12.1547 17.0535 11.1041 15.7583 11.1041C15.7568 11.088 15.7541 11.0719 15.7524 11.0562H15.3745C15.829 9.44432 15.5923 8.49086 14.2739 6.70074H23.3687C22.3532 8.21124 22.0206 9.12608 22.1216 10.3394C22.1385 10.3391 22.1554 10.3384 22.1724 10.3384C22.1901 10.3384 22.2084 10.3391 22.2261 10.3394C22.1958 10.4115 22.1699 10.4937 22.147 10.5855C22.1659 10.7366 22.1896 10.8933 22.2202 11.0562H21.604C20.5355 11.2751 19.7312 12.221 19.731 13.3541C19.731 14.6492 20.7815 15.6996 22.0767 15.6998C23.3719 15.6997 24.4223 14.6493 24.4224 13.3541C24.681 13.5113 24.8923 13.6088 25.0601 13.6607C25.1224 13.6744 25.1832 13.6895 25.2437 13.7017C25.2534 13.7028 25.2627 13.7051 25.272 13.7056L25.271 13.7076C27.6488 14.183 28.5986 13.5585 29.6636 11.7476C29.6274 11.7878 29.59 11.8271 29.5522 11.8658C29.8218 11.3207 29.9741 10.7041 29.9741 10.0513C29.9739 7.83107 28.2168 6.03102 26.0493 6.03082C25.2748 6.03082 24.5531 6.26207 23.9448 6.65875C24.6463 5.86359 25.6721 5.3609 26.8159 5.3609ZM17.2417 9.19C16.9777 9.19026 16.7633 9.40447 16.7632 9.66852C16.7632 9.93268 16.9776 10.1468 17.2417 10.147H20.2095C20.7381 10.147 21.1664 9.71859 21.1665 9.19H17.2417Z" fill="url(#paint4_linear_66_193)"/>
</g>
<g filter="url(#filter6_d_66_193)">
<path d="M26.1453 10.8174C26.6738 10.8174 27.1021 11.2459 27.1023 11.7744C27.1023 12.3031 26.6739 12.7324 26.1453 12.7324C25.6165 12.7324 25.1882 12.3031 25.1882 11.7744C25.1884 11.2459 25.6167 10.8174 26.1453 10.8174ZM28.0603 8.99902C28.589 8.99908 29.0173 9.42738 29.0173 9.95605C29.0172 10.4846 28.5889 10.913 28.0603 10.9131C27.5316 10.9131 27.1034 10.4847 27.1033 9.95605C27.1033 9.42735 27.5316 8.99902 28.0603 8.99902ZM24.0388 8.90332C24.5675 8.90332 24.9968 9.33165 24.9968 9.86035C24.9967 10.389 24.5675 10.8174 24.0388 10.8174C23.5103 10.8172 23.0819 10.3888 23.0818 9.86035C23.0818 9.33179 23.5103 8.90355 24.0388 8.90332ZM26.1453 7.08398C26.6739 7.08403 27.1022 7.51246 27.1023 8.04102C27.1023 8.56969 26.6739 8.99898 26.1453 8.99902C25.6165 8.99902 25.1882 8.56972 25.1882 8.04102C25.1884 7.51243 25.6166 7.08398 26.1453 7.08398Z" fill="#1596FF"/>
</g>
<g filter="url(#filter7_d_66_193)">
<path d="M19.6836 0C26.5832 1.63588e-05 32.1765 5.40009 32.1768 12.0615C32.1768 12.5658 32.1433 13.0627 32.0811 13.5508C32.0163 13.454 31.9482 13.3596 31.8809 13.2646C31.8226 12.0621 31.2034 11.0083 30.2793 10.3574C30.3917 10.0044 30.4531 9.62856 30.4531 9.23828C30.4531 8.15749 29.9882 7.1849 29.2471 6.51074C28.6122 5.31425 27.3541 4.49903 25.9053 4.49902C24.7539 4.49919 23.7228 5.01431 23.0293 5.82617C21.6171 3.75907 19.189 2.39356 16.4287 2.39355C15.4016 2.39355 14.4207 2.58397 13.5205 2.92773C11.609 3.56362 10.062 4.68611 8.85059 6.05664C11.0072 2.43817 15.0492 0 19.6836 0Z" fill="url(#paint5_linear_66_193)"/>
</g>
<g filter="url(#filter8_d_66_193)">
<path d="M33.1539 17.66C34.1974 17.2339 33.9958 17.3882 34.4776 16.2761C35.0125 17.4224 34.8558 17.2963 35.8295 17.66C34.6032 18.1595 34.7997 18.2474 34.4776 19.3207C34.1334 18.3714 34.3605 18.2298 33.1539 17.66Z" fill="white"/>
</g>
<g filter="url(#filter9_d_66_193)">
<path d="M33.8397 11.8939C34.5353 11.6098 34.4009 11.7127 34.7222 10.9713C35.0788 11.7355 34.9743 11.6514 35.6234 11.8939C34.8059 12.2269 34.9369 12.2855 34.7221 13.001C34.4927 12.3681 34.644 12.2737 33.8397 11.8939Z" fill="white"/>
</g>
<g filter="url(#filter10_d_66_193)">
<path d="M4.20437 8.98458C5.27835 8.546 5.07085 8.70485 5.56677 7.56029C6.1173 8.73999 5.95601 8.61023 6.95808 8.98458C5.69603 9.49869 5.89826 9.58912 5.56676 10.6937C5.21252 9.71674 5.44619 9.57102 4.20437 8.98458Z" fill="white"/>
</g>
<g filter="url(#filter11_d_66_193)">
<path d="M18.388 17.5804C19.3367 17.193 19.1534 17.3333 19.5914 16.3224C20.0777 17.3644 19.9353 17.2498 20.8204 17.5804C19.7056 18.0345 19.8842 18.1144 19.5914 19.0901C19.2785 18.2271 19.4849 18.0984 18.388 17.5804Z" fill="white"/>
</g>
<defs>
<filter id="filter0_d_66_193" x="7.14062" y="10.6962" width="9.19019" height="9.76422" filterUnits="userSpaceOnUse" color-interpolation-filters="sRGB">
<feFlood flood-opacity="0" result="BackgroundImageFix"/>
<feColorMatrix in="SourceAlpha" type="matrix" values="0 0 0 0 0 0 0 0 0 0 0 0 0 0 0 0 0 0 127 0" result="hardAlpha"/>
<feOffset dy="4"/>
<feGaussianBlur stdDeviation="2"/>
<feComposite in2="hardAlpha" operator="out"/>
<feColorMatrix type="matrix" values="0 0 0 0 0 0 0 0 0 0 0 0 0 0 0 0 0 0 0.25 0"/>
<feBlend mode="normal" in2="BackgroundImageFix" result="effect1_dropShadow_66_193"/>
<feBlend mode="normal" in="SourceGraphic" in2="effect1_dropShadow_66_193" result="shape"/>
</filter>
<filter id="filter1_d_66_193" x="5.29639" y="7.27551" width="12.8828" height="13.1689" filterUnits="userSpaceOnUse" color-interpolation-filters="sRGB">
<feFlood flood-opacity="0" result="BackgroundImageFix"/>
<feColorMatrix in="SourceAlpha" type="matrix" values="0 0 0 0 0 0 0 0 0 0 0 0 0 0 0 0 0 0 127 0" result="hardAlpha"/>
<feOffset dy="4"/>
<feGaussianBlur stdDeviation="2"/>
<feComposite in2="hardAlpha" operator="out"/>
<feColorMatrix type="matrix" values="0 0 0 0 0 0 0 0 0 0 0 0 0 0 0 0 0 0 0.25 0"/>
<feBlend mode="normal" in2="BackgroundImageFix" result="effect1_dropShadow_66_193"/>
<feBlend mode="normal" in="SourceGraphic" in2="effect1_dropShadow_66_193" result="shape"/>
</filter>
<filter id="filter2_d_66_193" x="16.8013" y="12.0405" width="10.7302" height="10.8001" filterUnits="userSpaceOnUse" color-interpolation-filters="sRGB">
<feFlood flood-opacity="0" result="BackgroundImageFix"/>
<feColorMatrix in="SourceAlpha" type="matrix" values="0 0 0 0 0 0 0 0 0 0 0 0 0 0 0 0 0 0 127 0" result="hardAlpha"/>
<feOffset dy="4"/>
<feGaussianBlur stdDeviation="2"/>
<feComposite in2="hardAlpha" operator="out"/>
<feColorMatrix type="matrix" values="0 0 0 0 0 0 0 0 0 0 0 0 0 0 0 0 0 0 0.25 0"/>
<feBlend mode="normal" in2="BackgroundImageFix" result="effect1_dropShadow_66_193"/>
<feBlend mode="normal" in="SourceGraphic" in2="effect1_dropShadow_66_193" result="shape"/>
</filter>
<filter id="filter3_d_66_193" x="10.1509" y="12.0405" width="10.8003" height="10.8001" filterUnits="userSpaceOnUse" color-interpolation-filters="sRGB">
<feFlood flood-opacity="0" result="BackgroundImageFix"/>
<feColorMatrix in="SourceAlpha" type="matrix" values="0 0 0 0 0 0 0 0 0 0 0 0 0 0 0 0 0 0 127 0" result="hardAlpha"/>
<feOffset dy="4"/>
<feGaussianBlur stdDeviation="2"/>
<feComposite in2="hardAlpha" operator="out"/>
<feColorMatrix type="matrix" values="0 0 0 0 0 0 0 0 0 0 0 0 0 0 0 0 0 0 0.25 0"/>
<feBlend mode="normal" in2="BackgroundImageFix" result="effect1_dropShadow_66_193"/>
<feBlend mode="normal" in="SourceGraphic" in2="effect1_dropShadow_66_193" result="shape"/>
</filter>
<filter id="filter4_d_66_193" x="8.14746" y="17.5698" width="22.5645" height="12.8311" filterUnits="userSpaceOnUse" color-interpolation-filters="sRGB">
<feFlood flood-opacity="0" result="BackgroundImageFix"/>
<feColorMatrix in="SourceAlpha" type="matrix" values="0 0 0 0 0 0 0 0 0 0 0 0 0 0 0 0 0 0 127 0" result="hardAlpha"/>
<feOffset dy="4"/>
<feGaussianBlur stdDeviation="2"/>
<feComposite in2="hardAlpha" operator="out"/>
<feColorMatrix type="matrix" values="0 0 0 0 0 0 0 0 0 0 0 0 0 0 0 0 0 0 0.25 0"/>
<feBlend mode="normal" in2="BackgroundImageFix" result="effect1_dropShadow_66_193"/>
<feBlend mode="normal" in="SourceGraphic" in2="effect1_dropShadow_66_193" result="shape"/>
</filter>
<filter id="filter5_d_66_193" x="2.52002" y="5.3609" width="33.0811" height="23.3164" filterUnits="userSpaceOnUse" color-interpolation-filters="sRGB">
<feFlood flood-opacity="0" result="BackgroundImageFix"/>
<feColorMatrix in="SourceAlpha" type="matrix" values="0 0 0 0 0 0 0 0 0 0 0 0 0 0 0 0 0 0 127 0" result="hardAlpha"/>
<feOffset dy="4"/>
<feGaussianBlur stdDeviation="2"/>
<feComposite in2="hardAlpha" operator="out"/>
<feColorMatrix type="matrix" values="0 0 0 0 0 0 0 0 0 0 0 0 0 0 0 0 0 0 0.25 0"/>
<feBlend mode="normal" in2="BackgroundImageFix" result="effect1_dropShadow_66_193"/>
<feBlend mode="normal" in="SourceGraphic" in2="effect1_dropShadow_66_193" result="shape"/>
</filter>
<filter id="filter6_d_66_193" x="19.0818" y="7.08398" width="13.9355" height="13.6484" filterUnits="userSpaceOnUse" color-interpolation-filters="sRGB">
<feFlood flood-opacity="0" result="BackgroundImageFix"/>
<feColorMatrix in="SourceAlpha" type="matrix" values="0 0 0 0 0 0 0 0 0 0 0 0 0 0 0 0 0 0 127 0" result="hardAlpha"/>
<feOffset dy="4"/>
<feGaussianBlur stdDeviation="2"/>
<feComposite in2="hardAlpha" operator="out"/>
<feColorMatrix type="matrix" values="0 0 0 0 0 0 0 0 0 0 0 0 0 0 0 0 0 0 0.25 0"/>
<feBlend mode="normal" in2="BackgroundImageFix" result="effect1_dropShadow_66_193"/>
<feBlend mode="normal" in="SourceGraphic" in2="effect1_dropShadow_66_193" result="shape"/>
</filter>
<filter id="filter7_d_66_193" x="4.85059" y="0" width="31.3262" height="21.5508" filterUnits="userSpaceOnUse" color-interpolation-filters="sRGB">
<feFlood flood-opacity="0" result="BackgroundImageFix"/>
<feColorMatrix in="SourceAlpha" type="matrix" values="0 0 0 0 0 0 0 0 0 0 0 0 0 0 0 0 0 0 127 0" result="hardAlpha"/>
<feOffset dy="4"/>
<feGaussianBlur stdDeviation="2"/>
<feComposite in2="hardAlpha" operator="out"/>
<feColorMatrix type="matrix" values="0 0 0 0 0 0 0 0 0 0 0 0 0 0 0 0 0 0 0.25 0"/>
<feBlend mode="normal" in2="BackgroundImageFix" result="effect1_dropShadow_66_193"/>
<feBlend mode="normal" in="SourceGraphic" in2="effect1_dropShadow_66_193" result="shape"/>
</filter>
<filter id="filter8_d_66_193" x="29.1538" y="16.2761" width="10.6758" height="11.0446" filterUnits="userSpaceOnUse" color-interpolation-filters="sRGB">
<feFlood flood-opacity="0" result="BackgroundImageFix"/>
<feColorMatrix in="SourceAlpha" type="matrix" values="0 0 0 0 0 0 0 0 0 0 0 0 0 0 0 0 0 0 127 0" result="hardAlpha"/>
<feOffset dy="4"/>
<feGaussianBlur stdDeviation="2"/>
<feComposite in2="hardAlpha" operator="out"/>
<feColorMatrix type="matrix" values="0 0 0 0 0 0 0 0 0 0 0 0 0 0 0 0 0 0 0.25 0"/>
<feBlend mode="normal" in2="BackgroundImageFix" result="effect1_dropShadow_66_193"/>
<feBlend mode="normal" in="SourceGraphic" in2="effect1_dropShadow_66_193" result="shape"/>
</filter>
<filter id="filter9_d_66_193" x="29.8396" y="10.9713" width="9.78369" height="10.0297" filterUnits="userSpaceOnUse" color-interpolation-filters="sRGB">
<feFlood flood-opacity="0" result="BackgroundImageFix"/>
<feColorMatrix in="SourceAlpha" type="matrix" values="0 0 0 0 0 0 0 0 0 0 0 0 0 0 0 0 0 0 127 0" result="hardAlpha"/>
<feOffset dy="4"/>
<feGaussianBlur stdDeviation="2"/>
<feComposite in2="hardAlpha" operator="out"/>
<feColorMatrix type="matrix" values="0 0 0 0 0 0 0 0 0 0 0 0 0 0 0 0 0 0 0.25 0"/>
<feBlend mode="normal" in2="BackgroundImageFix" result="effect1_dropShadow_66_193"/>
<feBlend mode="normal" in="SourceGraphic" in2="effect1_dropShadow_66_193" result="shape"/>
</filter>
<filter id="filter10_d_66_193" x="0.204346" y="7.5603" width="10.7537" height="11.1334" filterUnits="userSpaceOnUse" color-interpolation-filters="sRGB">
<feFlood flood-opacity="0" result="BackgroundImageFix"/>
<feColorMatrix in="SourceAlpha" type="matrix" values="0 0 0 0 0 0 0 0 0 0 0 0 0 0 0 0 0 0 127 0" result="hardAlpha"/>
<feOffset dy="4"/>
<feGaussianBlur stdDeviation="2"/>
<feComposite in2="hardAlpha" operator="out"/>
<feColorMatrix type="matrix" values="0 0 0 0 0 0 0 0 0 0 0 0 0 0 0 0 0 0 0.25 0"/>
<feBlend mode="normal" in2="BackgroundImageFix" result="effect1_dropShadow_66_193"/>
<feBlend mode="normal" in="SourceGraphic" in2="effect1_dropShadow_66_193" result="shape"/>
</filter>
<filter id="filter11_d_66_193" x="14.3879" y="16.3224" width="10.4324" height="10.7677" filterUnits="userSpaceOnUse" color-interpolation-filters="sRGB">
<feFlood flood-opacity="0" result="BackgroundImageFix"/>
<feColorMatrix in="SourceAlpha" type="matrix" values="0 0 0 0 0 0 0 0 0 0 0 0 0 0 0 0 0 0 127 0" result="hardAlpha"/>
<feOffset dy="4"/>
<feGaussianBlur stdDeviation="2"/>
<feComposite in2="hardAlpha" operator="out"/>
<feColorMatrix type="matrix" values="0 0 0 0 0 0 0 0 0 0 0 0 0 0 0 0 0 0 0.25 0"/>
<feBlend mode="normal" in2="BackgroundImageFix" result="effect1_dropShadow_66_193"/>
<feBlend mode="normal" in="SourceGraphic" in2="effect1_dropShadow_66_193" result="shape"/>
</filter>
<linearGradient id="paint0_linear_66_193" x1="9.29639" y1="10.1427" x2="14.1792" y2="10.1667" gradientUnits="userSpaceOnUse">
<stop stop-color="#73F4FF"/>
<stop offset="0.27" stop-color="#00FFFF"/>
<stop offset="0.535" stop-color="#7B00FF"/>
<stop offset="1" stop-color="#FF3372"/>
</linearGradient>
<linearGradient id="paint1_linear_66_193" x1="22.1664" y1="12.0405" x2="22.1664" y2="14.8406" gradientUnits="userSpaceOnUse">
<stop stop-color="#00E6FF"/>
<stop offset="1" stop-color="#AF02FF"/>
</linearGradient>
<linearGradient id="paint2_linear_66_193" x1="15.551" y1="12.0405" x2="15.551" y2="14.8406" gradientUnits="userSpaceOnUse">
<stop stop-color="#2D68FF"/>
<stop offset="1" stop-color="#FF0285"/>
</linearGradient>
<linearGradient id="paint3_linear_66_193" x1="12.1475" y1="19.9854" x2="26.7119" y2="19.9854" gradientUnits="userSpaceOnUse">
<stop stop-color="#7239FE"/>
<stop offset="1" stop-color="#31A4FF"/>
</linearGradient>
<linearGradient id="paint4_linear_66_193" x1="30.0225" y1="14.8379" x2="8.96161" y2="14.8144" gradientUnits="userSpaceOnUse">
<stop stop-color="#00E6FF"/>
<stop offset="0.545" stop-color="#AE00FF"/>
<stop offset="1" stop-color="#FF0037"/>
</linearGradient>
<linearGradient id="paint5_linear_66_193" x1="20.5137" y1="0" x2="20.5137" y2="13.5508" gradientUnits="userSpaceOnUse">
<stop stop-color="#65FEFF"/>
<stop offset="1" stop-color="#44B1FE"/>
</linearGradient>
</defs>
</svg>
