<svg width="72" height="53" viewBox="0 0 72 53" fill="none" xmlns="http://www.w3.org/2000/svg">
<g filter="url(#filter0_d_66_256)">
<path d="M18.2812 22.5834C18.2812 22.3055 18.3785 22.0364 18.5561 21.8227V21.8227C19.0319 21.2502 19.9107 21.2502 20.3866 21.8227V21.8227C20.5642 22.0364 20.6614 22.3055 20.6614 22.5834V23.7317C20.6614 24.389 20.1286 24.9218 19.4713 24.9218V24.9218C18.8141 24.9218 18.2812 24.389 18.2812 23.7317V23.299V22.5834Z" fill="#D9D9D9"/>
</g>
<g filter="url(#filter1_d_66_256)">
<path d="M18.5342 21.7635C19.0303 21.191 19.9187 21.1912 20.415 21.7635C20.6111 21.9898 20.7197 22.2795 20.7197 22.5789V23.6463C20.7197 24.3336 20.1619 24.8904 19.4746 24.8904C18.7875 24.8902 18.2305 24.3335 18.2305 23.6463V22.5789C18.2305 22.2795 18.3381 21.9898 18.5342 21.7635ZM16.9053 18.3807C17.2047 18.3807 17.4944 18.4893 17.7207 18.6854C18.293 19.1817 18.2932 20.07 17.7207 20.5662C17.4944 20.7623 17.2047 20.8699 16.9053 20.8699H15.8379C15.1507 20.8699 14.5939 20.313 14.5938 19.6258C14.5937 18.9385 15.1506 18.3807 15.8379 18.3807H16.9053ZM23.1133 18.3807C23.8006 18.3807 24.3574 18.9385 24.3574 19.6258C24.3572 20.3129 23.8005 20.8699 23.1133 20.8699H22.0459C21.7465 20.8699 21.4567 20.7623 21.2305 20.5662C20.658 20.0701 20.6582 19.1817 21.2305 18.6854C21.4567 18.4893 21.7465 18.3807 22.0459 18.3807H23.1133ZM19.4756 14.5516C20.1627 14.5518 20.7196 15.1086 20.7197 15.7957V16.8631C20.7197 17.1625 20.612 17.4523 20.416 17.6785C19.9198 18.2511 19.0314 18.2509 18.5352 17.6785C18.3391 17.4523 18.2305 17.1625 18.2305 16.8631V15.7957C18.2306 15.1085 18.7883 14.5516 19.4756 14.5516Z" fill="url(#paint0_linear_66_256)"/>
</g>
<g filter="url(#filter2_d_66_256)">
<ellipse cx="40.3327" cy="26.8821" rx="2.73019" ry="2.80021" fill="url(#paint1_linear_66_256)"/>
</g>
<g filter="url(#filter3_d_66_256)">
<ellipse cx="27.102" cy="26.8821" rx="2.80019" ry="2.80021" fill="url(#paint2_linear_66_256)"/>
</g>
<g filter="url(#filter4_d_66_256)">
<path d="M44.6201 35.142C45.4589 37.866 47.211 40.0495 49.4248 41.1508C46.0848 43.4298 41.7844 44.8041 37.0898 44.8041C29.8709 44.804 23.5823 41.5585 20.29 36.7601C23.2177 39.6004 27.2618 41.3568 31.7285 41.3568C36.9909 41.3568 41.6655 38.9176 44.6201 35.142Z" fill="url(#paint3_linear_66_256)"/>
</g>
<g filter="url(#filter5_d_66_256)">
<path d="M49.6309 10.7222C53.8594 10.7224 57.2881 14.1508 57.2881 18.3795C57.288 19.8832 56.8536 21.2855 56.1045 22.4683L58.8428 34.0611C59.075 34.6611 59.2031 35.3137 59.2031 35.9957C59.2031 38.9565 56.8026 41.3569 53.8418 41.357C51.6809 41.357 49.8183 40.0787 48.9697 38.2369L45.5127 32.7408C45.5127 32.7408 46.375 31.8788 46.375 30.8257C46.3749 30.4373 46.2563 29.8411 46.1084 29.2427C45.1837 31.5186 42.9536 33.1244 40.3457 33.1246C37.7942 33.1245 35.6019 31.5877 34.6416 29.3902H33.1084C32.1941 31.6892 29.951 33.316 27.3262 33.316C25.018 33.316 23.006 32.0578 21.9326 30.191C21.8927 30.4326 21.8682 30.6512 21.8682 30.8267C21.8684 31.8699 22.7139 32.7251 22.7295 32.7408L19.2734 38.2369C18.4249 40.0787 16.5622 41.3569 14.4014 41.357C11.4405 41.357 9.04004 38.9565 9.04004 35.9957C9.04007 35.3137 9.16721 34.6611 9.39941 34.0611L12.1387 22.4683C11.3896 21.2855 10.9551 19.8832 10.9551 18.3795C10.9551 14.1507 14.3835 10.7222 18.6123 10.7222C20.9005 10.7223 22.9525 11.7277 24.3555 13.3189C23.1386 12.5248 21.6952 12.0622 20.1455 12.0621C15.81 12.0621 12.2949 15.6628 12.2949 20.1041C12.2949 21.4105 12.601 22.6433 13.1406 23.7339C13.0641 23.6558 12.9892 23.5761 12.916 23.4947C15.0843 27.1821 17.0127 28.411 21.959 27.3629C22.2113 27.2511 22.5 27.1002 22.8262 26.9019C22.8266 29.4921 24.9264 31.5921 27.5166 31.5923C30.1071 31.5923 32.2076 29.4923 32.208 26.9019C32.208 24.3112 30.1073 22.2105 27.5166 22.2105C27.5136 22.1784 27.5083 22.1462 27.5049 22.1148H26.751C27.6602 18.8904 27.1858 16.9835 24.5488 13.4029H42.7383C40.7071 16.4245 40.0402 18.2539 40.2422 20.6812C40.2765 20.6807 40.3113 20.6793 40.3457 20.6793C40.3814 20.6793 40.4176 20.6806 40.4531 20.6812C40.3923 20.826 40.34 20.9906 40.2939 21.1754C40.3319 21.477 40.3792 21.7895 40.4404 22.1148H39.2041C37.0686 22.554 35.4629 24.4452 35.4629 26.7105C35.4633 29.3009 37.5638 31.4009 40.1543 31.4009C42.7444 31.4005 44.8443 29.3006 44.8447 26.7105C45.3723 27.0313 45.8009 27.2297 46.1396 27.3316C46.26 27.3579 46.3783 27.3842 46.4951 27.4078C46.5121 27.4095 46.5286 27.4126 46.5449 27.4136L46.5439 27.4166C51.2986 28.3667 53.1973 27.1169 55.3271 23.4947C55.254 23.5761 55.179 23.6558 55.1025 23.7339C55.6422 22.6433 55.9482 21.4105 55.9482 20.1041C55.9482 15.6631 52.4337 12.0625 48.0986 12.0621C46.5488 12.0621 45.1047 12.5248 43.8877 13.3189C45.2907 11.7278 47.3428 10.7223 49.6309 10.7222ZM30.4844 18.3814C29.9559 18.3816 29.5274 18.8099 29.5273 19.3384C29.5275 19.8669 29.9559 20.2953 30.4844 20.2955H36.4199C37.4772 20.2955 38.3347 19.4386 38.335 18.3814H30.4844Z" fill="url(#paint4_linear_66_256)"/>
</g>
<g filter="url(#filter6_d_66_256)">
<path d="M48.2905 21.6363C49.3478 21.6365 50.2045 22.4931 50.2046 23.5504C50.2046 24.6077 49.3478 25.4652 48.2905 25.4654C47.2331 25.4654 46.3755 24.6078 46.3755 23.5504C46.3756 22.493 47.2331 21.6363 48.2905 21.6363ZM52.1206 17.9976C53.1779 17.9978 54.0347 18.8553 54.0347 19.9127C54.0346 20.97 53.1779 21.8275 52.1206 21.8277C51.0632 21.8277 50.2056 20.9701 50.2056 19.9127C50.2056 18.8552 51.0632 17.9976 52.1206 17.9976ZM44.0786 17.8062C45.1359 17.8064 45.9927 18.6639 45.9927 19.7213C45.9926 20.7785 45.1359 21.6361 44.0786 21.6363C43.0212 21.6363 42.1636 20.7786 42.1636 19.7213C42.1636 18.6638 43.0212 17.8062 44.0786 17.8062ZM48.2905 14.1685C49.3478 14.1687 50.2046 15.0262 50.2046 16.0836C50.2044 17.1407 49.3477 17.9975 48.2905 17.9976C47.2332 17.9976 46.3757 17.1408 46.3755 16.0836C46.3755 15.0261 47.2331 14.1685 48.2905 14.1685Z" fill="#1596FF"/>
</g>
<g filter="url(#filter7_d_66_256)">
<path d="M35.3672 0C49.1668 0 60.3535 10.8012 60.3535 24.125C60.3535 25.1329 60.2874 26.1261 60.1631 27.1016C60.0343 26.9091 59.9023 26.719 59.7686 26.5303C59.6523 24.1239 58.4107 22.0145 56.5596 20.7129C56.784 20.0074 56.9062 19.2564 56.9062 18.4766C56.9062 16.316 55.977 14.3727 54.4961 13.0244C53.2263 10.6305 50.71 8.99902 47.8115 8.99902C45.509 8.99917 43.4476 10.029 42.0605 11.6523C39.2366 7.51737 34.3784 4.78711 28.8574 4.78711C26.7715 4.78712 24.78 5.1769 22.957 5.88477C19.166 7.16368 16.0925 9.39833 13.6855 12.126C17.9964 4.87999 26.0916 1.02864e-05 35.3672 0Z" fill="url(#paint5_linear_66_256)"/>
</g>
<g filter="url(#filter8_d_66_256)">
<path d="M62.3078 35.3214C64.3948 34.4691 63.9916 34.7777 64.9553 32.5535C66.0251 34.846 65.7117 34.5939 67.6589 35.3214C65.2065 36.3204 65.5995 36.4962 64.9553 38.6428C64.2669 36.7442 64.721 36.461 62.3078 35.3214Z" fill="white"/>
</g>
<g filter="url(#filter9_d_66_256)">
<path d="M63.6793 23.7887C65.0707 23.2205 64.8018 23.4263 65.4443 21.9434C66.1575 23.4718 65.9486 23.3037 67.2467 23.7887C65.6118 24.4547 65.8738 24.5719 65.4443 26.003C64.9854 24.7372 65.2881 24.5484 63.6793 23.7887Z" fill="white"/>
</g>
<g filter="url(#filter10_d_66_256)">
<path d="M4.40873 17.9698C6.5567 17.0926 6.14171 17.4103 7.13355 15.1211C8.2346 17.4806 7.91202 17.2211 9.91617 17.9698C7.39207 18.9981 7.79653 19.1789 7.13353 21.3883C6.42504 19.4342 6.89239 19.1427 4.40873 17.9698Z" fill="white"/>
</g>
<g filter="url(#filter11_d_66_256)">
<path d="M32.7761 35.1622C34.6734 34.3874 34.3068 34.668 35.1829 32.646C36.1554 34.7301 35.8705 34.5008 37.6408 35.1622C35.4112 36.0704 35.7685 36.2302 35.1829 38.1817C34.5571 36.4557 34.9699 36.1982 32.7761 35.1622Z" fill="white"/>
</g>
<defs>
<filter id="filter0_d_66_256" x="14.2812" y="21.3933" width="10.3801" height="11.5285" filterUnits="userSpaceOnUse" color-interpolation-filters="sRGB">
<feFlood flood-opacity="0" result="BackgroundImageFix"/>
<feColorMatrix in="SourceAlpha" type="matrix" values="0 0 0 0 0 0 0 0 0 0 0 0 0 0 0 0 0 0 127 0" result="hardAlpha"/>
<feOffset dy="4"/>
<feGaussianBlur stdDeviation="2"/>
<feComposite in2="hardAlpha" operator="out"/>
<feColorMatrix type="matrix" values="0 0 0 0 0 0 0 0 0 0 0 0 0 0 0 0 0 0 0.25 0"/>
<feBlend mode="normal" in2="BackgroundImageFix" result="effect1_dropShadow_66_256"/>
<feBlend mode="normal" in="SourceGraphic" in2="effect1_dropShadow_66_256" result="shape"/>
</filter>
<filter id="filter1_d_66_256" x="10.5938" y="14.5516" width="17.7637" height="18.3389" filterUnits="userSpaceOnUse" color-interpolation-filters="sRGB">
<feFlood flood-opacity="0" result="BackgroundImageFix"/>
<feColorMatrix in="SourceAlpha" type="matrix" values="0 0 0 0 0 0 0 0 0 0 0 0 0 0 0 0 0 0 127 0" result="hardAlpha"/>
<feOffset dy="4"/>
<feGaussianBlur stdDeviation="2"/>
<feComposite in2="hardAlpha" operator="out"/>
<feColorMatrix type="matrix" values="0 0 0 0 0 0 0 0 0 0 0 0 0 0 0 0 0 0 0.25 0"/>
<feBlend mode="normal" in2="BackgroundImageFix" result="effect1_dropShadow_66_256"/>
<feBlend mode="normal" in="SourceGraphic" in2="effect1_dropShadow_66_256" result="shape"/>
</filter>
<filter id="filter2_d_66_256" x="33.6025" y="24.0818" width="13.4604" height="13.6004" filterUnits="userSpaceOnUse" color-interpolation-filters="sRGB">
<feFlood flood-opacity="0" result="BackgroundImageFix"/>
<feColorMatrix in="SourceAlpha" type="matrix" values="0 0 0 0 0 0 0 0 0 0 0 0 0 0 0 0 0 0 127 0" result="hardAlpha"/>
<feOffset dy="4"/>
<feGaussianBlur stdDeviation="2"/>
<feComposite in2="hardAlpha" operator="out"/>
<feColorMatrix type="matrix" values="0 0 0 0 0 0 0 0 0 0 0 0 0 0 0 0 0 0 0.25 0"/>
<feBlend mode="normal" in2="BackgroundImageFix" result="effect1_dropShadow_66_256"/>
<feBlend mode="normal" in="SourceGraphic" in2="effect1_dropShadow_66_256" result="shape"/>
</filter>
<filter id="filter3_d_66_256" x="20.3018" y="24.0818" width="13.6003" height="13.6004" filterUnits="userSpaceOnUse" color-interpolation-filters="sRGB">
<feFlood flood-opacity="0" result="BackgroundImageFix"/>
<feColorMatrix in="SourceAlpha" type="matrix" values="0 0 0 0 0 0 0 0 0 0 0 0 0 0 0 0 0 0 127 0" result="hardAlpha"/>
<feOffset dy="4"/>
<feGaussianBlur stdDeviation="2"/>
<feComposite in2="hardAlpha" operator="out"/>
<feColorMatrix type="matrix" values="0 0 0 0 0 0 0 0 0 0 0 0 0 0 0 0 0 0 0.25 0"/>
<feBlend mode="normal" in2="BackgroundImageFix" result="effect1_dropShadow_66_256"/>
<feBlend mode="normal" in="SourceGraphic" in2="effect1_dropShadow_66_256" result="shape"/>
</filter>
<filter id="filter4_d_66_256" x="16.29" y="35.142" width="37.1348" height="17.6621" filterUnits="userSpaceOnUse" color-interpolation-filters="sRGB">
<feFlood flood-opacity="0" result="BackgroundImageFix"/>
<feColorMatrix in="SourceAlpha" type="matrix" values="0 0 0 0 0 0 0 0 0 0 0 0 0 0 0 0 0 0 127 0" result="hardAlpha"/>
<feOffset dy="4"/>
<feGaussianBlur stdDeviation="2"/>
<feComposite in2="hardAlpha" operator="out"/>
<feColorMatrix type="matrix" values="0 0 0 0 0 0 0 0 0 0 0 0 0 0 0 0 0 0 0.25 0"/>
<feBlend mode="normal" in2="BackgroundImageFix" result="effect1_dropShadow_66_256"/>
<feBlend mode="normal" in="SourceGraphic" in2="effect1_dropShadow_66_256" result="shape"/>
</filter>
<filter id="filter5_d_66_256" x="5.04004" y="10.7222" width="58.1631" height="38.6348" filterUnits="userSpaceOnUse" color-interpolation-filters="sRGB">
<feFlood flood-opacity="0" result="BackgroundImageFix"/>
<feColorMatrix in="SourceAlpha" type="matrix" values="0 0 0 0 0 0 0 0 0 0 0 0 0 0 0 0 0 0 127 0" result="hardAlpha"/>
<feOffset dy="4"/>
<feGaussianBlur stdDeviation="2"/>
<feComposite in2="hardAlpha" operator="out"/>
<feColorMatrix type="matrix" values="0 0 0 0 0 0 0 0 0 0 0 0 0 0 0 0 0 0 0.25 0"/>
<feBlend mode="normal" in2="BackgroundImageFix" result="effect1_dropShadow_66_256"/>
<feBlend mode="normal" in="SourceGraphic" in2="effect1_dropShadow_66_256" result="shape"/>
</filter>
<filter id="filter6_d_66_256" x="38.1636" y="14.1685" width="19.8711" height="19.2969" filterUnits="userSpaceOnUse" color-interpolation-filters="sRGB">
<feFlood flood-opacity="0" result="BackgroundImageFix"/>
<feColorMatrix in="SourceAlpha" type="matrix" values="0 0 0 0 0 0 0 0 0 0 0 0 0 0 0 0 0 0 127 0" result="hardAlpha"/>
<feOffset dy="4"/>
<feGaussianBlur stdDeviation="2"/>
<feComposite in2="hardAlpha" operator="out"/>
<feColorMatrix type="matrix" values="0 0 0 0 0 0 0 0 0 0 0 0 0 0 0 0 0 0 0.25 0"/>
<feBlend mode="normal" in2="BackgroundImageFix" result="effect1_dropShadow_66_256"/>
<feBlend mode="normal" in="SourceGraphic" in2="effect1_dropShadow_66_256" result="shape"/>
</filter>
<filter id="filter7_d_66_256" x="9.68555" y="0" width="54.668" height="35.1016" filterUnits="userSpaceOnUse" color-interpolation-filters="sRGB">
<feFlood flood-opacity="0" result="BackgroundImageFix"/>
<feColorMatrix in="SourceAlpha" type="matrix" values="0 0 0 0 0 0 0 0 0 0 0 0 0 0 0 0 0 0 127 0" result="hardAlpha"/>
<feOffset dy="4"/>
<feGaussianBlur stdDeviation="2"/>
<feComposite in2="hardAlpha" operator="out"/>
<feColorMatrix type="matrix" values="0 0 0 0 0 0 0 0 0 0 0 0 0 0 0 0 0 0 0.25 0"/>
<feBlend mode="normal" in2="BackgroundImageFix" result="effect1_dropShadow_66_256"/>
<feBlend mode="normal" in="SourceGraphic" in2="effect1_dropShadow_66_256" result="shape"/>
</filter>
<filter id="filter8_d_66_256" x="58.3079" y="32.5535" width="13.3511" height="14.0893" filterUnits="userSpaceOnUse" color-interpolation-filters="sRGB">
<feFlood flood-opacity="0" result="BackgroundImageFix"/>
<feColorMatrix in="SourceAlpha" type="matrix" values="0 0 0 0 0 0 0 0 0 0 0 0 0 0 0 0 0 0 127 0" result="hardAlpha"/>
<feOffset dy="4"/>
<feGaussianBlur stdDeviation="2"/>
<feComposite in2="hardAlpha" operator="out"/>
<feColorMatrix type="matrix" values="0 0 0 0 0 0 0 0 0 0 0 0 0 0 0 0 0 0 0.25 0"/>
<feBlend mode="normal" in2="BackgroundImageFix" result="effect1_dropShadow_66_256"/>
<feBlend mode="normal" in="SourceGraphic" in2="effect1_dropShadow_66_256" result="shape"/>
</filter>
<filter id="filter9_d_66_256" x="59.6792" y="21.9434" width="11.5676" height="12.0596" filterUnits="userSpaceOnUse" color-interpolation-filters="sRGB">
<feFlood flood-opacity="0" result="BackgroundImageFix"/>
<feColorMatrix in="SourceAlpha" type="matrix" values="0 0 0 0 0 0 0 0 0 0 0 0 0 0 0 0 0 0 127 0" result="hardAlpha"/>
<feOffset dy="4"/>
<feGaussianBlur stdDeviation="2"/>
<feComposite in2="hardAlpha" operator="out"/>
<feColorMatrix type="matrix" values="0 0 0 0 0 0 0 0 0 0 0 0 0 0 0 0 0 0 0.25 0"/>
<feBlend mode="normal" in2="BackgroundImageFix" result="effect1_dropShadow_66_256"/>
<feBlend mode="normal" in="SourceGraphic" in2="effect1_dropShadow_66_256" result="shape"/>
</filter>
<filter id="filter10_d_66_256" x="0.408691" y="15.1212" width="13.5076" height="14.2671" filterUnits="userSpaceOnUse" color-interpolation-filters="sRGB">
<feFlood flood-opacity="0" result="BackgroundImageFix"/>
<feColorMatrix in="SourceAlpha" type="matrix" values="0 0 0 0 0 0 0 0 0 0 0 0 0 0 0 0 0 0 127 0" result="hardAlpha"/>
<feOffset dy="4"/>
<feGaussianBlur stdDeviation="2"/>
<feComposite in2="hardAlpha" operator="out"/>
<feColorMatrix type="matrix" values="0 0 0 0 0 0 0 0 0 0 0 0 0 0 0 0 0 0 0.25 0"/>
<feBlend mode="normal" in2="BackgroundImageFix" result="effect1_dropShadow_66_256"/>
<feBlend mode="normal" in="SourceGraphic" in2="effect1_dropShadow_66_256" result="shape"/>
</filter>
<filter id="filter11_d_66_256" x="28.7761" y="32.6459" width="12.8647" height="13.5357" filterUnits="userSpaceOnUse" color-interpolation-filters="sRGB">
<feFlood flood-opacity="0" result="BackgroundImageFix"/>
<feColorMatrix in="SourceAlpha" type="matrix" values="0 0 0 0 0 0 0 0 0 0 0 0 0 0 0 0 0 0 127 0" result="hardAlpha"/>
<feOffset dy="4"/>
<feGaussianBlur stdDeviation="2"/>
<feComposite in2="hardAlpha" operator="out"/>
<feColorMatrix type="matrix" values="0 0 0 0 0 0 0 0 0 0 0 0 0 0 0 0 0 0 0.25 0"/>
<feBlend mode="normal" in2="BackgroundImageFix" result="effect1_dropShadow_66_256"/>
<feBlend mode="normal" in="SourceGraphic" in2="effect1_dropShadow_66_256" result="shape"/>
</filter>
<linearGradient id="paint0_linear_66_256" x1="14.5937" y1="20.2864" x2="24.3575" y2="20.3344" gradientUnits="userSpaceOnUse">
<stop stop-color="#73F4FF"/>
<stop offset="0.27" stop-color="#00FFFF"/>
<stop offset="0.535" stop-color="#7B00FF"/>
<stop offset="1" stop-color="#FF3372"/>
</linearGradient>
<linearGradient id="paint1_linear_66_256" x1="40.3327" y1="24.0818" x2="40.3327" y2="29.6823" gradientUnits="userSpaceOnUse">
<stop stop-color="#00E6FF"/>
<stop offset="1" stop-color="#AF02FF"/>
</linearGradient>
<linearGradient id="paint2_linear_66_256" x1="27.102" y1="24.0818" x2="27.102" y2="29.6823" gradientUnits="userSpaceOnUse">
<stop stop-color="#2D68FF"/>
<stop offset="1" stop-color="#FF0285"/>
</linearGradient>
<linearGradient id="paint3_linear_66_256" x1="20.29" y1="39.973" x2="49.4248" y2="39.973" gradientUnits="userSpaceOnUse">
<stop stop-color="#7239FE"/>
<stop offset="1" stop-color="#31A4FF"/>
</linearGradient>
<linearGradient id="paint4_linear_66_256" x1="56.0458" y1="29.6775" x2="13.9233" y2="29.6305" gradientUnits="userSpaceOnUse">
<stop stop-color="#00E6FF"/>
<stop offset="0.545" stop-color="#AE00FF"/>
<stop offset="1" stop-color="#FF0037"/>
</linearGradient>
<linearGradient id="paint5_linear_66_256" x1="37.0195" y1="0" x2="37.0195" y2="27.1016" gradientUnits="userSpaceOnUse">
<stop stop-color="#65FEFF"/>
<stop offset="1" stop-color="#44B1FE"/>
</linearGradient>
</defs>
</svg>
